HIERARCHY
ROOT Hips
{
	OFFSET 0.00000 0.00000 0.00000
	CHANNELS 6 Xposition Yposition Zposition Yrotation Zrotation Xrotation 
	JOINT Lumbar
	{
		OFFSET 0 0 0
		CHANNELS 3 Zrotation Xrotation Yrotation
		JOINT Neck
		{
			OFFSET 0.00 0.2701 0.00
			CHANNELS 3 Zrotation Xrotation Yrotation
			End Site
			{
				OFFSET 0.00 0.1379 0.00
			}
		}
		JOINT RightShoulder
		{
			OFFSET 0.0119 0.2289 0.1181
			CHANNELS 3 Zrotation Xrotation Yrotation
			JOINT RightElbow
			{
				OFFSET 0.00 -0.1475 0.00
				CHANNELS 2 Zrotation Yrotation
				JOINT RightWrist
				{
					OFFSET 0.00 -0.1605 0.00
					CHANNELS 2 Zrotation Xrotation
					End Site
					{
						OFFSET 0.0040 -0.1068 0.0006
					}
				}
			}
		}
		JOINT LeftShoulder
		{
			OFFSET 0.0119 0.2289 -0.1181
			CHANNELS 3 Zrotation Xrotation Yrotation
			JOINT LeftElbow
			{
				OFFSET 0.00 -0.1475 0.00
				CHANNELS 2 Zrotation Yrotation
				JOINT LeftWrist
				{
					OFFSET 0.00 -0.1605 0.00
					CHANNELS 2 Zrotation Xrotation
					End Site
					{
						OFFSET 0.0040 -0.1068 -0.0006
					}
				}
			}
		}
	}
	JOINT RightHip
	{
		OFFSET 0.0316 -0.0424 0.0458
		CHANNELS 3 Zrotation Xrotation Yrotation
		JOINT RightKnee
		{
			OFFSET 0.00 -0.2438 0.00
			CHANNELS 1 Zrotation
			JOINT RightAnkle
			{
				OFFSET 0.00 -0.2449 0.00
				CHANNELS 3 Zrotation Xrotation Yrotation
				End Site
				{
					OFFSET 0.1237 -0.0542 0.0051
				}
			}
		}
	}
	JOINT LeftHip
	{
		OFFSET 0.0316 -0.0424 -0.0458
		CHANNELS 3 Zrotation Xrotation Yrotation
		JOINT LeftKnee
		{
			OFFSET 0.00 -0.2438 0.00
			CHANNELS 1 Zrotation
			JOINT LeftAnkle
			{
				OFFSET 0.00 -0.2449 0.00
				CHANNELS 3 Zrotation Xrotation Yrotation
				End Site
				{
					OFFSET 0.1237 -0.0542 -0.0051
				}
			}
		}
	}
}
MOTION
Frames: 34
Frame Time: 0.02
0 0.57926 -0 183.88487 0 -2.91216 0.39755 1.70949 -7.66672 -31.20563 5.52505 3.56761 -23.40447 -72.72914 -81.3928 18.18971 73.7896 -17.29421 -1.23311 -6.2713 63.65876 70.54875 25.18276 -71.93262 -30.50186 1.71302 -4.57514 4.26291 -0.05093 -6.08834 -1.29429 -3.00127 -6.97349 -1.12255 4.24159 -2.2649 -7.47305 2.58313 1.57427 0.3265
-0.00031 0.57924 -2e-05 183.86452 0 -2.90927 0.4424 1.70104 -7.65894 -31.30441 5.48201 3.55391 -22.59178 -72.64672 -82.10496 18.28116 74.37535 -16.95354 -1.31541 -6.24619 63.67151 70.61325 25.18268 -71.93614 -30.52113 1.71611 -4.60427 4.27561 0.21854 -6.08482 -1.28123 -3.03208 -7.2392 -1.16608 4.24154 -2.24545 -7.45631 2.61107 1.58635 0.33882
-0.00063 0.57922 -3e-05 183.84424 0 -2.90641 0.48705 1.69259 -7.65126 -31.4025 5.43933 3.54038 -21.78563 -72.56494 -82.81173 18.3719 74.95625 -16.61548 -1.39702 -6.22141 63.68395 70.67753 25.18254 -71.93977 -30.54039 1.7192 -4.63334 4.28815 0.4851 -6.08131 -1.26817 -3.06257 -7.50191 -1.20946 4.24148 -2.22619 -7.43966 2.63891 1.59838 0.35115
-0.00094 0.5792 -5e-05 183.82407 0 -2.90364 0.53137 1.68413 -7.64385 -31.49888 5.39757 3.52742 -20.99831 -72.48497 -83.50397 18.46075 75.52266 -16.28439 -1.4765 -6.19734 63.69535 70.74123 25.18221 -71.94363 -30.55979 1.72235 -4.66238 4.30014 0.74045 -6.07773 -1.25512 -3.09176 -7.75289 -1.25271 4.24141 -2.20746 -7.42313 2.66641 1.61023 0.36365
-0.00126 0.57918 -7e-05 183.80333 0 -2.90041 0.57746 1.67579 -7.63497 -31.60443 5.35082 3.51146 -20.11191 -72.39549 -84.27334 18.55966 76.16489 -15.91618 -1.56705 -6.16905 63.71233 70.80765 25.18293 -71.94596 -30.57846 1.72521 -4.69151 4.31498 1.05258 -6.07441 -1.24216 -3.12746 -8.06324 -1.29669 4.24141 -2.18587 -7.40589 2.69549 1.62296 0.3753
-0.00157 0.57916 -8e-05 183.78383 0 -2.89816 0.61977 1.66715 -7.62922 -31.69039 5.31473 3.50185 -19.43553 -72.32618 -84.87868 18.63719 76.64676 -15.62698 -1.63421 -6.15004 63.71745 70.86849 25.18141 -71.95176 -30.59864 1.72869 -4.72044 4.32385 1.24607 -6.0706 -1.22895 -3.1496 -8.2496 -1.33908 4.24125 -2.1704 -7.39022 2.72135 1.63383 0.38869
-0.00187 0.57915 -7e-05 183.76713 0 -2.89869 0.6521 1.65789 -7.63208 -31.7235 5.30782 3.51039 -19.34605 -72.31298 -85.03122 18.65543 76.6765 -15.55535 -1.63511 -6.15429 63.6891 70.91289 25.17371 -71.96544 -30.62377 1.73382 -4.74938 4.31517 1.08971 -6.06478 -1.21513 -3.13134 -8.06934 -1.37798 4.24086 -2.17161 -7.37807 2.73715 1.63954 0.40774
-0.00217 0.57914 -5e-05 183.75177 0 -2.90021 0.68054 1.64828 -7.63811 -31.73664 5.31172 3.52526 -19.46781 -72.32012 -85.01769 18.65208 76.54552 -15.56381 -1.61263 -6.16826 63.64886 70.95182 25.16374 -71.98293 -30.65029 1.7396 -4.77803 4.30062 0.81707 -6.05858 -1.20104 -3.09985 -7.76768 -1.41516 4.24029 -2.17904 -7.36765 2.74988 1.64337 0.42841
-0.00247 0.57913 -3e-05 183.73618 0 -2.90123 0.71049 1.63868 -7.64275 -31.75818 5.3108 3.53682 -19.48755 -72.31756 -85.08099 18.65887 76.49486 -15.53556 -1.60202 -6.17943 63.6145 70.99413 25.15481 -71.99977 -30.67572 1.74514 -4.80647 4.28945 0.6124 -6.05297 -1.18702 -3.07634 -7.53765 -1.45258 4.2397 -2.18376 -7.35698 2.76487 1.64806 0.44776
-0.00278 0.57911 -1e-05 183.71902 0 -2.90247 0.74157 1.6297 -7.64722 -31.78261 5.30943 3.55012 -19.53026 -72.31662 -85.14107 18.66454 76.41577 -15.50742 -1.58643 -6.18413 63.57817 71.03307 25.14586 -72.01203 -30.70317 1.75045 -4.83636 4.27537 0.3456 -6.04556 -1.17322 -3.04474 -7.24006 -1.49227 4.23955 -2.18798 -7.34408 2.77639 1.65271 0.4695
-0.00307 0.5791 1e-05 183.70544 0 -2.90347 0.76931 1.61934 -7.65274 -31.79623 5.31165 3.5614 -19.57843 -72.31751 -85.16519 18.66709 76.35481 -15.49964 -1.57531 -6.20421 63.54305 71.07723 25.13639 -72.03474 -30.72665 1.7564 -4.86313 4.26584 0.17843 -6.04184 -1.15891 -3.02658 -7.05198 -1.52682 4.23844 -2.19473 -7.33618 2.79415 1.65701 0.48675
-0.00331 0.57908 6e-05 183.70144 0 -2.90357 0.78937 1.60522 -7.66088 -31.78526 5.32038 3.56491 -19.56122 -72.31519 -85.16045 18.66918 76.40999 -15.51379 -1.58561 -6.26798 63.51474 71.14137 25.12617 -72.08558 -30.73948 1.76375 -4.88178 4.27144 0.33335 -6.04819 -1.14322 -3.05112 -7.21645 -1.54768 4.23481 -2.20704 -7.34214 2.83225 1.66086 0.49023
-0.00352 0.57906 0.0001 183.70103 0 -2.90339 0.80606 1.58973 -7.66989 -31.76401 5.33247 3.56627 -19.54637 -72.31452 -85.12103 18.66845 76.48511 -15.54769 -1.60074 -6.34628 63.48795 71.21017 25.1155 -72.14682 -30.74815 1.77175 -4.89724 4.28162 0.58914 -6.05829 -1.12705 -3.08923 -7.49163 -1.5634 4.2302 -2.22171 -7.35299 2.87633 1.66442 0.4893
-0.00374 0.57904 0.00015 183.69888 0 -2.90334 0.82393 1.57487 -7.67815 -31.74724 5.34355 3.5691 -19.55084 -72.31542 -85.07628 18.66692 76.53211 -15.58303 -1.61128 -6.41553 63.46012 71.27406 25.10492 -72.20313 -30.75824 1.77957 -4.9139 4.28895 0.78651 -6.06683 -1.11116 -3.11961 -7.70253 -1.58145 4.22599 -2.23519 -7.36128 2.9161 1.66806 0.49106
-0.00397 0.57902 0.00019 183.69704 0 -2.90331 0.84326 1.55993 -7.68793 -31.73066 5.35289 3.5702 -19.48156 -72.30771 -85.10936 18.67288 76.64928 -15.58004 -1.63051 -6.49525 63.43338 71.34953 25.09466 -72.26025 -30.77025 1.78696 -4.93159 4.29932 1.03268 -6.07483 -1.095 -3.15611 -7.96758 -1.59957 4.22201 -2.24924 -7.37105 2.96238 1.67185 0.49009
-0.00418 0.579 0.00024 183.69562 0 -2.90317 0.85866 1.54487 -7.69484 -31.71142 5.36644 3.57417 -19.55749 -72.31745 -84.98108 18.66356 76.63298 -15.65694 -1.63385 -6.55675 63.40485 71.40206 25.08374 -72.31833 -30.77738 1.79535 -4.94641 4.30455 1.20301 -6.08476 -1.0793 -3.18328 -8.14842 -1.61624 4.2173 -2.26277 -7.37891 2.99668 1.67529 0.4936
-0.00432 0.57898 0.00032 183.69239 0 -2.90282 0.86509 1.52959 -7.69243 -31.68814 5.39129 3.58769 -20.08693 -72.38014 -84.35667 18.60673 76.19251 -15.98089 -1.58541 -6.56175 63.37144 71.38998 25.0705 -72.3747 -30.77093 1.80662 -4.95378 4.29433 1.13699 -6.09987 -1.06491 -3.18106 -8.06422 -1.63114 4.21095 -2.27258 -7.37995 2.99546 1.67783 0.51166
-0.00445 0.57897 0.00041 183.68979 0 -2.90237 0.86748 1.51429 -7.68723 -31.66255 5.42011 3.60393 -20.75212 -72.45931 -83.58198 18.53583 75.6264 -16.37881 -1.52204 -6.54822 63.33613 71.35469 25.05679 -72.43207 -30.7598 1.81883 -4.9584 4.27887 0.99229 -6.11668 -1.05104 -3.1691 -7.89313 -1.64463 4.20388 -2.28196 -7.37891 2.98216 1.68001 0.53412
-0.00458 0.57895 0.00049 183.68832 0 -2.90193 0.87105 1.49908 -7.68416 -31.63757 5.44675 3.61815 -21.31839 -72.52735 -82.91688 18.47545 75.15302 -16.72138 -1.4702 -6.54499 63.30148 71.33015 25.04362 -72.49003 -30.7517 1.83037 -4.96449 4.26593 0.88555 -6.13217 -1.03698 -3.16186 -7.76589 -1.65812 4.19701 -2.29278 -7.37912 2.97503 1.6824 0.55394
-0.00472 0.57894 0.00057 183.68119 0 -2.90158 0.87731 1.48335 -7.6778 -31.61388 5.47512 3.63558 -22.03925 -72.6106 -82.08005 18.3976 74.53349 -17.15451 -1.39905 -6.53481 63.26784 71.30497 25.0288 -72.54361 -30.74012 1.84285 -4.96965 4.25253 0.77249 -6.15001 -1.02265 -3.15386 -7.62375 -1.67401 4.19058 -2.29892 -7.37843 2.96527 1.68469 0.57658
-0.00484 0.57892 0.00066 183.68571 0 -2.90109 0.87699 1.46887 -7.67724 -31.58731 5.50075 3.64706 -22.47383 -72.66633 -81.5608 18.35278 74.18369 -17.41875 -1.36381 -6.53392 63.2315 71.27547 25.01761 -72.60685 -30.73415 1.85372 -4.97601 4.23883 0.65316 -6.16343 -1.00907 -3.14496 -7.49091 -1.68477 4.18316 -2.31407 -7.3788 2.95798 1.68699 0.59411
-0.00489 0.57891 0.00078 183.72436 0 -2.89967 0.85986 1.45676 -7.69644 -31.55149 5.51803 3.64099 -22.05357 -72.63952 -81.99811 18.40373 74.64973 -17.17721 -1.43735 -6.56858 63.18936 71.2408 25.01427 -72.69253 -30.74946 1.85876 -4.98746 4.22508 0.53077 -6.16322 -0.99688 -3.13573 -7.40179 -1.68058 4.1725 -2.35928 -7.38462 2.96117 1.69044 0.59931
-0.00491 0.5789 0.00091 183.77427 0 -2.89822 0.83616 1.44616 -7.72099 -31.51319 5.53232 3.62894 -21.34605 -72.58476 -82.75257 18.48864 75.38436 -16.76689 -1.54645 -6.61232 63.14433 71.20261 25.01526 -72.7884 -30.76956 1.86231 -5.00001 4.21131 0.40524 -6.1587 -0.98554 -3.12591 -7.32509 -1.67151 4.16103 -2.41262 -7.39117 2.96713 1.69373 0.59876
-0.00495 0.57889 0.00103 183.81768 0 -2.89712 0.81524 1.43555 -7.74108 -31.47736 5.54787 3.61994 -20.79075 -72.54458 -83.33374 18.55675 75.96904 -16.44791 -1.63527 -6.64807 63.09989 71.16502 25.01545 -72.88241 -30.78465 1.8673 -5.0114 4.19783 0.28387 -6.15678 -0.97416 -3.11646 -7.24425 -1.66545 4.15037 -2.45883 -7.39602 2.97137 1.69639 0.59892
-0.00499 0.57888 0.00116 183.86715 0 -2.89455 0.7951 1.42195 -7.76967 -31.43603 5.56414 3.60965 -20.14978 -72.49762 -84.03212 18.62844 76.66544 -16.07031 -1.74077 -6.69879 63.05852 71.1299 25.00971 -72.96557 -30.8122 1.86921 -5.02558 4.18284 0.14815 -6.15214 -0.96128 -3.10629 -7.15406 -1.65601 4.13774 -2.51943 -7.40656 2.97712 1.70194 0.60702
-0.00501 0.57887 0.00129 183.90643 0 -2.89511 0.77174 1.4151 -7.78182 -31.4053 5.57795 3.60059 -19.61591 -72.45724 -84.56444 18.70305 77.1966 -15.77305 -1.82041 -6.72164 63.00997 71.09028 25.01856 -73.07272 -30.81416 1.87704 -5.03411 4.17121 0.04276 -6.15222 -0.95179 -3.09757 -7.08747 -1.65247 4.12914 -2.55212 -7.40548 2.98053 1.70153 0.59748
-0.005 0.57888 0.00143 183.91671 0 -2.90359 0.74191 1.42513 -7.74773 -31.40684 5.58719 3.59625 -19.45875 -72.4473 -84.55434 18.76135 77.1883 -15.74493 -1.818 -6.65792 62.94312 71.0296 25.05758 -73.25178 -30.75119 1.90286 -5.02795 4.16766 0.02062 -6.16537 -0.95087 -3.09315 -7.0828 -1.66641 4.13082 -2.50462 -7.37192 2.97691 1.68392 0.53791
-0.00497 0.57888 0.00158 183.91601 0 -2.91532 0.70891 1.44219 -7.6969 -31.41864 5.59369 3.59334 -19.41653 -72.44355 -84.36793 18.82593 77.00796 -15.80224 -1.78873 -6.56757 62.86889 70.9667 25.11364 -73.45269 -30.6609 1.93446 -5.01588 4.16774 0.02969 -6.18357 -0.95343 -3.09022 -7.10186 -1.68644 4.13678 -2.42898 -7.32673 2.97088 1.66049 0.4613
-0.00494 0.57889 0.00173 183.91907 0 -2.92605 0.67686 1.45694 -7.65334 -31.42428 5.60057 3.58986 -19.31409 -72.43374 -84.26733 18.89643 76.91893 -15.81583 -1.77313 -6.49401 62.79763 70.91082 25.16679 -73.63878 -30.57878 1.96259 -5.00572 4.16697 0.02578 -6.20018 -0.9548 -3.08656 -7.11069 -1.7037 4.14147 -2.36692 -7.28698 2.96593 1.64026 0.39425
-0.00493 0.57889 0.00189 183.92763 0 -2.93486 0.64674 1.46791 -7.61112 -31.43639 5.61135 3.58592 -19.23576 -72.43799 -84.15443 18.92517 76.78528 -15.84327 -1.75273 -6.39991 62.72834 70.82826 25.19633 -73.8476 -30.51527 1.99424 -4.99874 4.16283 0.01685 -6.21382 -0.95457 -3.08311 -7.11777 -1.72085 4.14329 -2.30168 -7.24649 2.9611 1.61767 0.31924
-0.00489 0.5789 0.00201 183.92208 0 -2.94833 0.61184 1.48853 -7.56241 -31.4372 5.61295 3.58326 -19.13782 -72.41313 -84.02024 19.04931 76.69834 -15.86556 -1.73531 -6.34346 62.65268 70.80223 25.28323 -74.01198 -30.40579 2.01991 -4.98387 4.16654 0.02555 -6.23468 -0.95845 -3.07954 -7.13371 -1.73966 4.15208 -2.23644 -7.20494 2.95544 1.59862 0.25695
-0.00483 0.57892 0.00204 183.87955 0 -2.97488 0.56522 1.53307 -7.49684 -31.40704 5.59392 3.58461 -18.96128 -72.32055 -83.87575 19.37391 76.79705 -15.84316 -1.73399 -6.38539 62.56512 70.91989 25.49008 -74.06797 -30.18211 2.02803 -4.94749 4.19132 0.07792 -6.27616 -0.9733 -3.07563 -7.17063 -1.76247 4.17935 -2.1766 -7.16195 2.94798 1.59064 0.23292
-0.00475 0.57894 0.00203 183.8233 0 -3.00582 0.51383 1.58728 -7.42579 -31.3648 5.56515 3.58703 -18.76101 -72.19593 -83.71249 19.80669 76.94432 -15.81531 -1.73612 -6.46767 62.47022 71.09634 25.76141 -74.07563 -29.91229 2.02985 -4.90357 4.22385 0.14651 -6.32439 -0.99205 -3.0715 -7.21518 -1.78658 4.21346 -2.11791 -7.11856 2.93977 1.58645 0.22243
-0.00467 0.57896 0.00202 183.77375 0 -3.03408 0.46414 1.63769 -7.35926 -31.32614 5.53804 3.58857 -18.57159 -72.07688 -83.55383 20.22871 77.0589 -15.79698 -1.73569 -6.54019 62.3768 71.25518 26.02447 -74.09138 -29.65921 2.03436 -4.86386 4.25264 0.20595 -6.36825 -1.00871 -3.06723 -7.25463 -1.80952 4.2442 -2.0597 -7.07626 2.93194 1.58065 0.2065
